<svg class="svg1" xmlns="http://www.w3.org/2000/svg" width="202" height="64" viewBox="0 0 202 64" version="1.1"><path d="" stroke="#1a66c9" fill="#1a66c9" fill-rule="evenodd"/><path d="M 25.991 4.750 C 25.987 7.362, 25.689 11.944, 25.331 14.931 C 24.739 19.855, 24.579 20.136, 23.614 17.931 C 22.663 15.759, 22.515 16.058, 22.223 20.750 C 21.948 25.156, 21.585 26, 19.967 26 C 18.744 26, 17.809 25.086, 17.411 23.500 C 17.066 22.125, 16.157 21, 15.392 21 C 14.626 21, 14 20.518, 14 19.929 C 14 18.862, 11.573 16, 10.668 16 C 9.962 16, 8.874 25.705, 8.874 32 C 8.874 38.295, 9.962 48, 10.668 48 C 11.573 48, 14 45.138, 14 44.071 C 14 43.482, 14.626 43, 15.392 43 C 16.157 43, 17.066 41.875, 17.411 40.500 C 17.809 38.914, 18.744 38, 19.967 38 C 21.585 38, 21.948 38.844, 22.223 43.250 C 22.515 47.942, 22.663 48.241, 23.614 46.069 C 24.579 43.864, 24.739 44.145, 25.331 49.069 C 25.689 52.056, 25.987 56.638, 25.991 59.250 C 26.004 66.456, 27.704 64.933, 29.066 56.494 C 29.777 52.083, 31.044 48.102, 32.138 46.841 C 33.162 45.660, 34 44.088, 34 43.347 C 34 42.606, 34.420 42, 34.933 42 C 35.446 42, 36.151 41.101, 36.499 40.002 C 36.848 38.904, 38.341 37.717, 39.817 37.364 C 41.292 37.012, 43.057 36.286, 43.737 35.750 C 45.639 34.253, 48 35.666, 48 38.302 C 48 41.900, 48.969 42.139, 51.585 39.186 C 53.600 36.911, 54.117 36.729, 54.967 38 C 55.518 38.825, 55.976 41.413, 55.985 43.750 C 55.993 46.087, 56.257 48, 56.571 48 C 57.553 48, 60 45.196, 60 44.071 C 60 43.482, 60.626 43, 61.392 43 C 62.157 43, 63.066 41.875, 63.411 40.500 C 63.809 38.914, 64.744 38, 65.967 38 C 67.585 38, 67.948 38.844, 68.223 43.250 C 68.515 47.942, 68.663 48.241, 69.614 46.069 C 70.579 43.864, 70.739 44.145, 71.331 49.069 C 71.689 52.056, 71.987 56.638, 71.991 59.250 C 72.004 66.456, 73.704 64.933, 75.066 56.494 C 75.777 52.083, 77.044 48.102, 78.138 46.841 C 79.162 45.660, 80 44.088, 80 43.347 C 80 42.606, 80.420 42, 80.933 42 C 81.446 42, 82.151 41.101, 82.499 40.002 C 82.848 38.904, 84.341 37.717, 85.817 37.364 C 87.292 37.012, 89.057 36.286, 89.737 35.750 C 91.639 34.253, 94 35.666, 94 38.302 C 94 41.900, 94.969 42.139, 97.585 39.186 C 99.600 36.911, 100.117 36.729, 100.967 38 C 101.518 38.825, 101.976 41.413, 101.985 43.750 C 101.993 46.087, 102.257 48, 102.571 48 C 103.553 48, 106 45.196, 106 44.071 C 106 43.482, 106.626 43, 107.392 43 C 108.157 43, 109.066 41.875, 109.411 40.500 C 109.809 38.914, 110.744 38, 111.967 38 C 113.585 38, 113.948 38.844, 114.223 43.250 C 114.515 47.942, 114.663 48.241, 115.614 46.069 C 116.579 43.864, 116.739 44.145, 117.331 49.069 C 117.689 52.056, 117.987 56.638, 117.991 59.250 C 118.004 66.456, 119.704 64.933, 121.066 56.494 C 121.777 52.083, 123.044 48.102, 124.138 46.841 C 125.162 45.660, 126 44.088, 126 43.347 C 126 42.606, 126.420 42, 126.933 42 C 127.446 42, 128.151 41.101, 128.499 40.002 C 128.848 38.904, 130.341 37.717, 131.817 37.364 C 133.292 37.012, 135.057 36.286, 135.737 35.750 C 137.639 34.253, 140 35.666, 140 38.302 C 140 41.900, 140.969 42.139, 143.585 39.186 C 145.600 36.911, 146.117 36.729, 146.967 38 C 147.518 38.825, 147.976 41.413, 147.985 43.750 C 147.993 46.087, 148.257 48, 148.571 48 C 149.553 48, 152 45.196, 152 44.071 C 152 43.482, 152.626 43, 153.392 43 C 154.157 43, 155.066 41.875, 155.411 40.500 C 155.809 38.914, 156.744 38, 157.967 38 C 159.585 38, 159.948 38.844, 160.223 43.250 C 160.515 47.942, 160.663 48.241, 161.614 46.069 C 162.579 43.864, 162.739 44.145, 163.331 49.069 C 163.689 52.056, 163.987 56.638, 163.991 59.250 C 164.004 66.456, 165.704 64.933, 167.066 56.494 C 167.777 52.083, 169.044 48.102, 170.138 46.841 C 171.162 45.660, 172 44.088, 172 43.347 C 172 42.606, 172.420 42, 172.933 42 C 173.446 42, 174.151 41.101, 174.499 40.002 C 174.848 38.904, 176.341 37.717, 177.817 37.364 C 179.292 37.012, 181.057 36.286, 181.737 35.750 C 183.639 34.253, 186 35.666, 186 38.302 C 186 39.603, 186.261 40.928, 186.580 41.247 C 187.616 42.283, 194 34.326, 194 32 C 194 29.674, 187.616 21.717, 186.580 22.753 C 186.261 23.072, 186 24.397, 186 25.698 C 186 28.334, 183.639 29.747, 181.737 28.250 C 181.057 27.714, 179.292 26.988, 177.817 26.636 C 176.341 26.283, 174.848 25.096, 174.499 23.998 C 174.151 22.899, 173.446 22, 172.933 22 C 172.420 22, 172 21.394, 172 20.653 C 172 19.912, 171.162 18.340, 170.138 17.159 C 169.044 15.898, 167.777 11.917, 167.066 7.506 C 165.704 -0.933, 164.004 -2.456, 163.991 4.750 C 163.987 7.362, 163.689 11.944, 163.331 14.931 C 162.739 19.855, 162.579 20.136, 161.614 17.931 C 160.663 15.759, 160.515 16.058, 160.223 20.750 C 159.948 25.156, 159.585 26, 157.967 26 C 156.744 26, 155.809 25.086, 155.411 23.500 C 155.066 22.125, 154.157 21, 153.392 21 C 152.626 21, 152 20.518, 152 19.929 C 152 18.804, 149.553 16, 148.571 16 C 148.257 16, 147.993 17.913, 147.985 20.250 C 147.976 22.587, 147.518 25.175, 146.967 26 C 146.117 27.271, 145.600 27.089, 143.585 24.814 C 140.969 21.861, 140 22.100, 140 25.698 C 140 28.334, 137.639 29.747, 135.737 28.250 C 135.057 27.714, 133.292 26.988, 131.817 26.636 C 130.341 26.283, 128.848 25.096, 128.499 23.998 C 128.151 22.899, 127.446 22, 126.933 22 C 126.420 22, 126 21.394, 126 20.653 C 126 19.912, 125.162 18.340, 124.138 17.159 C 123.044 15.898, 121.777 11.917, 121.066 7.506 C 119.704 -0.933, 118.004 -2.456, 117.991 4.750 C 117.987 7.362, 117.689 11.944, 117.331 14.931 C 116.739 19.855, 116.579 20.136, 115.614 17.931 C 114.663 15.759, 114.515 16.058, 114.223 20.750 C 113.948 25.156, 113.585 26, 111.967 26 C 110.744 26, 109.809 25.086, 109.411 23.500 C 109.066 22.125, 108.157 21, 107.392 21 C 106.626 21, 106 20.518, 106 19.929 C 106 18.804, 103.553 16, 102.571 16 C 102.257 16, 101.993 17.913, 101.985 20.250 C 101.976 22.587, 101.518 25.175, 100.967 26 C 100.117 27.271, 99.600 27.089, 97.585 24.814 C 94.969 21.861, 94 22.100, 94 25.698 C 94 28.334, 91.639 29.747, 89.737 28.250 C 89.057 27.714, 87.292 26.988, 85.817 26.636 C 84.341 26.283, 82.848 25.096, 82.499 23.998 C 82.151 22.899, 81.446 22, 80.933 22 C 80.420 22, 80 21.394, 80 20.653 C 80 19.912, 79.162 18.340, 78.138 17.159 C 77.044 15.898, 75.777 11.917, 75.066 7.506 C 73.704 -0.933, 72.004 -2.456, 71.991 4.750 C 71.987 7.362, 71.689 11.944, 71.331 14.931 C 70.739 19.855, 70.579 20.136, 69.614 17.931 C 68.663 15.759, 68.515 16.058, 68.223 20.750 C 67.948 25.156, 67.585 26, 65.967 26 C 64.744 26, 63.809 25.086, 63.411 23.500 C 63.066 22.125, 62.157 21, 61.392 21 C 60.626 21, 60 20.518, 60 19.929 C 60 18.804, 57.553 16, 56.571 16 C 56.257 16, 55.993 17.913, 55.985 20.250 C 55.976 22.587, 55.518 25.175, 54.967 26 C 54.117 27.271, 53.600 27.089, 51.585 24.814 C 48.969 21.861, 48 22.100, 48 25.698 C 48 28.334, 45.639 29.747, 43.737 28.250 C 43.057 27.714, 41.292 26.988, 39.817 26.636 C 38.341 26.283, 36.848 25.096, 36.499 23.998 C 36.151 22.899, 35.446 22, 34.933 22 C 34.420 22, 34 21.394, 34 20.653 C 34 19.912, 33.162 18.340, 32.138 17.159 C 31.044 15.898, 29.777 11.917, 29.066 7.506 C 27.704 -0.933, 26.004 -2.456, 25.991 4.750" stroke="none" fill="#1a66c9" fill-rule="evenodd"/></svg>